<svg width="30" height="31" viewBox="0 0 30 31" fill="none" xmlns="http://www.w3.org/2000/svg">
<path d="M25.58 18.5108C29.68 17.1126 29.765 11.9455 29.765 11.73C29.765 11.6163 29.7299 11.5056 29.665 11.4146C29.545 11.2359 26.59 7.10963 22.49 8.51309C21.3592 8.91403 20.301 9.51293 19.36 10.2845C19.7709 9.10521 19.9873 7.86085 20 6.60501C20 2.07398 15.355 0.391932 15.16 0.323599C15.0562 0.286746 14.9438 0.286746 14.84 0.323599C14.645 0.391932 9.99999 2.07398 9.99999 6.63129C10.0139 7.88701 10.2303 9.13114 10.64 10.3108C9.69753 9.52921 8.63581 8.92136 7.49999 8.51309C3.40499 7.10963 0.454985 11.2359 0.334985 11.4146C0.270074 11.5056 0.234985 11.6163 0.234985 11.73C0.234985 11.9455 0.319985 17.1126 4.41999 18.5108C5.55919 18.8879 6.75147 19.0568 7.94499 19.0101C6.95366 19.7086 6.08285 20.5796 5.36999 21.5858C2.83499 25.2653 5.65499 29.4704 5.77999 29.6596C5.84024 29.7543 5.93067 29.8233 6.03499 29.8541C6.83641 30.0953 7.66637 30.2157 8.49999 30.2116C12.05 30.2116 14 27.9776 15 24.4295C16.025 27.9986 17.965 30.2116 21.5 30.2116C22.3322 30.2135 23.1604 30.0914 23.96 29.8489C24.0643 29.818 24.1547 29.7491 24.215 29.6544C24.34 29.4757 27.16 25.2495 24.625 21.5805C23.9111 20.5772 23.0424 19.7066 22.055 19.0049C23.2482 19.0521 24.4403 18.885 25.58 18.5108ZM15 1.39065C15.76 1.70604 19 3.25668 19 6.61027C19 9.64322 17.37 12.7918 15.56 15.1362C15.47 15.0994 15.5 15.6092 15.5 9.23847C15.5 8.94817 15.2761 8.71283 15 8.71283C14.7238 8.71283 14.5 8.94817 14.5 9.23847V14.7157C13.8932 13.7629 13.2125 12.8645 12.465 12.0296C11.5611 10.3769 11.0579 8.51573 11 6.61027C11 3.26719 14.24 1.71129 15 1.39065ZM4.72999 17.5121C1.70499 16.4608 1.29499 12.755 1.22999 11.8982C1.72999 11.2359 4.14999 8.47629 7.18499 9.51181C9.93499 10.4527 12.275 13.0494 13.835 15.5935C13.785 15.6618 14.215 15.7722 8.48499 13.8221C8.22645 13.7445 7.95584 13.8958 7.87244 14.1645C7.78903 14.4332 7.92269 14.7231 8.17499 14.8208L13.13 16.5133C12.0775 16.8263 11.0522 17.2325 10.065 17.7276C8.29661 18.115 6.46486 18.041 4.72999 17.5121ZM12.65 27.1471C10.785 29.8541 7.29499 29.113 6.49999 28.9027C6.05999 28.1721 4.30999 24.9078 6.17999 22.206C7.85998 19.7776 10.96 18.2059 13.735 17.4385C13.78 17.5121 14.01 17.1336 10.48 22.2428C10.3478 22.4774 10.4082 22.7793 10.6191 22.9381C10.83 23.0968 11.1213 23.0597 11.29 22.8526L14.355 18.4162C14.3122 19.5591 14.3607 20.7037 14.5 21.8381C14.3127 23.7419 13.6769 25.5666 12.65 27.1471ZM15 17.1231C14.7238 17.1231 14.5 16.8878 14.5 16.5974C14.5 16.3071 14.7238 16.0718 15 16.0718C15.2761 16.0718 15.5 16.3071 15.5 16.5974C15.5 16.8878 15.2761 17.1231 15 17.1231ZM23.82 22.206C25.69 24.9078 23.94 28.1721 23.5 28.9027C22.705 29.113 19.215 29.8541 17.35 27.1471C15.65 24.6871 15.215 21.1495 15.35 18.1218C15.43 18.1218 15.14 17.7171 18.69 22.8526C18.7863 23.0235 18.9661 23.1228 19.1546 23.1091C19.3432 23.0954 19.5083 22.9711 19.5813 22.7879C19.6544 22.6047 19.6229 22.3938 19.5 22.2428L16.45 17.8064C17.4834 18.2093 18.5471 18.5205 19.63 18.7368C21.2745 19.5173 22.7129 20.7082 23.82 22.206ZM16.5 16.6973C16.5 16.608 16.125 16.7709 21.82 14.8208C22.0723 14.7231 22.2059 14.4332 22.1225 14.1645C22.0391 13.8958 21.7685 13.7445 21.51 13.8221L16.555 15.4936C17.2294 14.5891 17.8315 13.6274 18.355 12.6183C19.5728 11.2115 21.0985 10.138 22.8 9.49078C25.8 8.4395 28.235 11.2149 28.755 11.8772C28.705 12.7392 28.305 16.4555 25.255 17.491C22.53 18.453 19.2 17.8012 16.5 16.6973Z" fill="#892AC2"/>
</svg>
