<svg width="30" height="30" viewBox="0 0 30 30" fill="none" xmlns="http://www.w3.org/2000/svg">
<path d="M25.58 18.12C29.68 16.79 29.765 11.875 29.765 11.67C29.765 11.5618 29.7299 11.4565 29.665 11.37C29.545 11.2 26.59 7.27499 22.49 8.60999C21.3592 8.99138 20.301 9.56106 19.36 10.295C19.7709 9.17323 19.9873 7.98957 20 6.79499C20 2.48499 15.355 0.884992 15.16 0.819992C15.0562 0.784937 14.9438 0.784937 14.84 0.819992C14.645 0.884992 9.99999 2.48499 9.99999 6.81999C10.0139 8.01445 10.2303 9.1979 10.64 10.32C9.69754 9.57655 8.63581 8.99835 7.49999 8.60999C3.40499 7.27499 0.454985 11.2 0.334985 11.37C0.270074 11.4565 0.234985 11.5618 0.234985 11.67C0.234985 11.875 0.319985 16.79 4.41999 18.12C5.55919 18.4787 6.75147 18.6394 7.94499 18.595C6.95366 19.2594 6.08285 20.0879 5.36999 21.045C2.83499 24.545 5.65499 28.545 5.77999 28.725C5.84024 28.8151 5.93067 28.8807 6.03499 28.91C6.83641 29.1394 7.66637 29.2539 8.49999 29.25C12.05 29.25 14 27.125 15 23.75C16.025 27.145 17.965 29.25 21.5 29.25C22.3322 29.2518 23.1604 29.1357 23.96 28.905C24.0643 28.8757 24.1547 28.8101 24.215 28.72C24.34 28.55 27.16 24.53 24.625 21.04C23.9111 20.0856 23.0424 19.2575 22.055 18.59C23.2482 18.6349 24.4403 18.4759 25.58 18.12ZM15 1.83499C15.76 2.13499 19 3.60999 19 6.79999C19 9.68499 17.37 12.68 15.56 14.91C15.47 14.875 15.5 15.36 15.5 9.29999C15.5 9.02385 15.2761 8.79999 15 8.79999C14.7238 8.79999 14.5 9.02385 14.5 9.29999V14.51C13.8932 13.6037 13.2125 12.7491 12.465 11.955C11.5611 10.3829 11.0579 8.61251 11 6.79999C11 3.61999 14.24 2.13999 15 1.83499ZM4.72999 17.17C1.70499 16.17 1.29499 12.645 1.22999 11.83C1.72999 11.2 4.14999 8.57499 7.18499 9.55999C9.93499 10.455 12.275 12.925 13.835 15.345C13.785 15.41 14.215 15.515 8.48499 13.66C8.22645 13.5862 7.95584 13.7301 7.87244 13.9857C7.78903 14.2413 7.92269 14.5171 8.17499 14.61L13.13 16.22C12.0775 16.5177 11.0522 16.9041 10.065 17.375C8.29661 17.7436 6.46486 17.6732 4.72999 17.17ZM12.65 26.335C10.785 28.91 7.29499 28.205 6.49999 28.005C6.05999 27.31 4.30999 24.205 6.17999 21.635C7.85999 19.325 10.96 17.83 13.735 17.1C13.78 17.17 14.01 16.81 10.48 21.67C10.3478 21.8932 10.4082 22.1803 10.6191 22.3313C10.83 22.4823 11.1213 22.447 11.29 22.25L14.355 18.03C14.3122 19.1171 14.3607 20.206 14.5 21.285C14.3127 23.0959 13.6769 24.8316 12.65 26.335ZM15 16.8C14.7238 16.8 14.5 16.5761 14.5 16.3C14.5 16.0239 14.7238 15.8 15 15.8C15.2761 15.8 15.5 16.0239 15.5 16.3C15.5 16.5761 15.2761 16.8 15 16.8ZM23.82 21.635C25.69 24.205 23.94 27.31 23.5 28.005C22.705 28.205 19.215 28.91 17.35 26.335C15.65 23.995 15.215 20.63 15.35 17.75C15.43 17.75 15.14 17.365 18.69 22.25C18.7863 22.4126 18.9661 22.507 19.1546 22.494C19.3432 22.481 19.5083 22.3628 19.5813 22.1885C19.6544 22.0142 19.6229 21.8136 19.5 21.67L16.45 17.45C17.4834 17.8332 18.5471 18.1292 19.63 18.335C21.2745 19.0774 22.7129 20.2102 23.82 21.635ZM16.5 16.395C16.5 16.31 16.125 16.465 21.82 14.61C22.0723 14.5171 22.2059 14.2413 22.1225 13.9857C22.0391 13.7301 21.7685 13.5862 21.51 13.66L16.555 15.25C17.2294 14.3896 17.8315 13.4748 18.355 12.515C19.5728 11.1768 21.0985 10.1556 22.8 9.53999C25.8 8.53999 28.235 11.18 28.755 11.81C28.705 12.63 28.305 16.165 25.255 17.15C22.53 18.065 19.2 17.445 16.5 16.395Z" fill="white"/>
</svg>
